<svg xmlns="http://www.w3.org/2000/svg" fill="none" viewBox="0 0 200 200"><path fill="#3e3a39" d="M115.946 198.437H83.528c-4.018 0-7.047-3.732-7.047-8.68v-16.613a77 77 0 0 1-28.667-16.567l-14.4 8.315c-1.634.943-3.397 1.442-5.097 1.442-2.564 0-4.787-1.198-5.945-3.205l-16.21-28.075c-1.144-1.982-1.085-4.48.159-6.682.848-1.502 2.175-2.802 3.836-3.761l14.39-8.309a77.3 77.3 0 0 1-1.79-16.556c0-5.58.601-11.134 1.79-16.557l-14.39-8.308c-1.661-.96-2.988-2.26-3.836-3.761-1.244-2.202-1.303-4.7-.158-6.683l16.209-28.075c1.158-2.006 3.38-3.204 5.945-3.204 1.7 0 3.462.498 5.096 1.441l14.401 8.315a77 77 0 0 1 28.667-16.567V9.735c0-4.95 3.03-8.682 7.047-8.682h32.418c4.017 0 7.047 3.733 7.047 8.682v16.612a77 77 0 0 1 28.667 16.567l14.4-8.315c1.635-.943 3.397-1.441 5.097-1.441 2.564 0 4.786 1.198 5.945 3.204l16.209 28.075c1.145 1.983 1.086 4.481-.158 6.683-.849 1.501-2.176 2.802-3.837 3.761l-14.39 8.308a77.3 77.3 0 0 1 1.791 16.557c0 5.579-.601 11.133-1.791 16.556l14.39 8.308c4.286 2.475 6.004 6.965 3.995 10.444l-16.209 28.076c-1.159 2.006-3.381 3.204-5.945 3.204-1.7 0-3.463-.499-5.097-1.442l-14.401-8.315a77 77 0 0 1-28.666 16.567v16.613c0 4.948-3.03 8.68-7.047 8.68m-30.069-9.396h27.72v-23.038l3.495-.926c11.52-3.052 22.079-9.153 30.535-17.646l2.55-2.56 19.962 11.526 13.86-24.006-19.948-11.517.94-3.487a67.8 67.8 0 0 0 2.33-17.641c0-5.972-.784-11.907-2.33-17.641l-.94-3.487 19.948-11.517-13.86-24.006-19.962 11.526-2.55-2.56c-8.456-8.493-19.015-14.595-30.535-17.647l-3.495-.926V10.45h-27.72v23.038l-3.495.926c-11.52 3.052-22.08 9.154-30.536 17.646l-2.549 2.56-19.962-11.525-13.86 24.006 19.948 11.517-.94 3.487a67.8 67.8 0 0 0-2.33 17.64c0 5.974.784 11.909 2.33 17.642l.94 3.487-19.948 11.516 13.86 24.006 19.962-11.525 2.55 2.56c8.456 8.493 19.015 14.594 30.535 17.646l3.495.926z"/><path fill="#333" d="M106.927 152.258H92.93c-7.725 0-14-6.282-14-14.001v-6.09c0-4.87-2.89-12.285-6.178-15.876-.317-.35-7.824-8.674-7.824-20.816 0-19.3 15.7-35.002 35.004-35.002 19.297 0 35 15.702 35 35.002 0 12.147-7.51 20.47-7.824 20.816-3.298 3.585-6.175 11.006-6.175 15.875v6.09c0 7.72-6.282 14.002-14.006 14.002m-6.995-84.782c-15.444 0-28.006 12.56-28.006 27.999 0 9.45 5.926 16.022 5.984 16.087 4.496 4.902 8.019 13.955 8.019 20.606v6.09a7.01 7.01 0 0 0 7.001 7.002h13.997a7.006 7.006 0 0 0 7.004-7.002v-6.09c0-6.651 3.52-15.701 8.016-20.606.051-.059 5.984-6.737 5.984-16.087 0-15.439-12.563-28-28-28m13.999 39.626a3.5 3.5 0 0 1-3.321-2.392l-1.714-5.127-6.489 6.496a3.5 3.5 0 0 1-4.95 0l-6.496-6.496-1.707 5.127a3.497 3.497 0 0 1-4.428 2.213 3.494 3.494 0 0 1-2.208-4.431l3.495-10.497a3.52 3.52 0 0 1 2.513-2.301 3.51 3.51 0 0 1 3.287.932l8.019 8.027 8.022-8.026a3.496 3.496 0 0 1 5.793 1.369l3.499 10.502a3.493 3.493 0 0 1-2.205 4.428 3.7 3.7 0 0 1-1.11.176m24.462-34.965a3.5 3.5 0 0 1-2.338-6.102l3.55-3.203a3.501 3.501 0 1 1 4.694 5.197l-3.557 3.205a3.48 3.48 0 0 1-2.349.903m-76.923 0a3.5 3.5 0 0 1-2.349-.901l-3.557-3.209a3.51 3.51 0 0 1-.252-4.946 3.5 3.5 0 0 1 4.946-.255l3.557 3.206a3.496 3.496 0 0 1 .25 4.946 3.48 3.48 0 0 1-2.595 1.16m38.462-14.035A3.5 3.5 0 0 1 96.43 54.6v-3.5a3.501 3.501 0 0 1 7.001 0v3.5a3.503 3.503 0 0 1-3.5 3.502m6.995 80.505H92.93a3.5 3.5 0 0 1-3.502-3.501 3.497 3.497 0 0 1 3.502-3.499h13.997a3.49 3.49 0 0 1 3.498 3.499 3.49 3.49 0 0 1-3.498 3.501"/></svg>